<svg width="100" height="100" viewBox="0 0 100 100" fill="none" xmlns="http://www.w3.org/2000/svg">
<path d="M50 0C22.4 0 0 22.4 0 50C0 72.1 14.3 90.8 34.2 97.4C36.7 97.9 37.6 96.3 37.6 94.9V86C23.5 89.1 20.5 79.2 20.5 79.2C18.2 73.4 14.9 71.8 14.9 71.8C10.3 68.7 15.2 68.7 15.2 68.7C20.3 69 23 73.9 23 73.9C27.5 81.6 34.8 79.4 37.6 78.1C38.1 74.8 39.4 72.6 40.9 71.3C29.7 70 17.9 65.7 17.9 46.5C17.9 41 19.9 36.5 23.1 32.9C22.6 31.6 20.8 26.5 23.6 19.5C23.6 19.5 27.8 18.1 37.6 24.7C41.6 23.6 45.9 23.1 50.3 23.1C54.7 23.1 59 23.6 63 24.7C72.8 18.1 77 19.5 77 19.5C79.8 26.5 78.1 31.6 77.5 32.9C80.7 36.5 82.7 41 82.7 46.5C82.7 65.7 70.9 70 59.7 71.3C61.5 72.9 63.1 75.8 63.1 80.5V94.1C63.1 95.5 63.9 97.1 66.5 96.6C85.7 90.8 100 72.1 100 50C100 22.4 77.6 0 50 0Z" fill="#9FA8DA"/>
</svg>
